<svg width="101" height="100" viewBox="0 0 101 100" fill="none" xmlns="http://www.w3.org/2000/svg">
<path d="M73.9374 21.875C73.9374 18.1454 75.419 14.5685 78.0562 11.9313C80.6934 9.29408 84.2703 7.8125 87.9999 7.8125V20.3125C88.0036 22.9278 87.2768 25.4921 85.9016 27.7165C84.5263 29.941 82.5571 31.7372 80.2159 32.9028C77.8748 34.0683 75.2546 34.5569 72.6507 34.3135C70.0468 34.0701 67.5626 33.1043 65.478 31.525" stroke="#A1A1A1" stroke-width="1.75" fill="transparent" stroke-miterlimit="10" stroke-linecap="round" stroke-linejoin="round"/>
<path d="M90.1079 42.9686C88.607 41.468 86.5716 40.625 84.4493 40.625C82.3269 40.625 80.2915 41.468 78.7907 42.9686C77.2901 44.4691 75.2549 45.312 73.1329 45.312C71.0108 45.312 68.9756 44.4691 67.475 42.9686C65.9742 41.468 63.9388 40.625 61.8164 40.625C59.6941 40.625 57.6587 41.468 56.1578 42.9686C54.6573 44.4691 52.6221 45.312 50.5 45.312C48.378 45.312 46.3428 44.4691 44.8422 42.9686C43.3414 41.468 41.306 40.625 39.1836 40.625C37.0613 40.625 35.0259 41.468 33.525 42.9686C32.0245 44.4691 29.9893 45.312 27.8672 45.312C25.7451 45.312 23.71 44.4691 22.2094 42.9686C20.7086 41.468 18.6731 40.625 16.5508 40.625C14.4285 40.625 12.3931 41.468 10.8922 42.9686L42.6875 78.1248H58.3125L90.1079 42.9686Z" stroke="#A1A1A1" stroke-width="1.75" fill="transparent" stroke-miterlimit="10" stroke-linecap="round" stroke-linejoin="round"/>
<path d="M42.6875 78.125L36.4375 96.875H64.5625L58.3125 78.125" stroke="#A1A1A1" stroke-width="1.75" fill="transparent" stroke-miterlimit="10" stroke-linecap="round" stroke-linejoin="round"/>
<path d="M50.5 78.125V68.75" stroke="#A1A1A1" stroke-width="1.75" fill="transparent" stroke-miterlimit="10" stroke-linecap="round" stroke-linejoin="round"/>
<path d="M27.0625 21.875C27.0625 18.1454 25.5809 14.5685 22.9437 11.9313C20.3065 9.29408 16.7296 7.8125 13 7.8125V20.3125C12.9963 22.9278 13.7231 25.4921 15.0984 27.7165C16.4736 29.941 18.4428 31.7372 20.784 32.9028C23.1251 34.0683 25.7453 34.5569 28.3492 34.3135C30.9531 34.0701 33.4373 33.1043 35.5219 31.525" stroke="#A1A1A1" stroke-width="1.75" fill="transparent" stroke-miterlimit="10" stroke-linecap="round" stroke-linejoin="round"/>
<path d="M50.5 29.6875V35.9375" stroke="#A1A1A1" stroke-width="1.75" fill="transparent" stroke-miterlimit="10" stroke-linecap="round" stroke-linejoin="round"/>
<path d="M36.4373 8.49219C32.2787 9.83361 28.4903 12.1267 25.3733 15.1891" stroke="#A1A1A1" stroke-width="1.75" fill="transparent" stroke-miterlimit="10" stroke-linecap="round" stroke-linejoin="round"/>
<path d="M48.8109 10.5016C52.9719 6.61719 58.4859 3.125 64.5625 3.125V15.625C64.5625 19.3546 63.0809 22.9315 60.4437 25.5687C57.8065 28.2059 54.2296 29.6875 50.5 29.6875C46.7704 29.6875 43.1935 28.2059 40.5563 25.5687C37.9191 22.9315 36.4375 19.3546 36.4375 15.625V3.125C40.1671 3.125 43.744 4.60658 46.3812 7.24381C49.0184 9.88104 50.5 13.4579 50.5 17.1875" stroke="#A1A1A1" stroke-width="1.75" fill="transparent" stroke-miterlimit="10" stroke-linecap="round" stroke-linejoin="round"/>
<path d="M64.5625 8.49219C68.7215 9.83397 72.5103 12.127 75.6281 15.1891" stroke="#A1A1A1" stroke-width="1.75" fill="transparent" stroke-miterlimit="10" stroke-linecap="round" stroke-linejoin="round"/>
</svg>
