<svg width="122" height="81" viewBox="0 0 122 81" fill="none" xmlns="http://www.w3.org/2000/svg">
<path fill-rule="evenodd" clip-rule="evenodd" d="M47.9637 63.5737C47.9637 72.2141 40.9607 79.2171 32.3202 79.2171C23.6798 79.2171 16.6768 72.2141 16.6768 63.5737C16.6768 54.9332 23.6798 47.9302 32.3202 47.9302C40.9607 47.9302 47.9637 54.9332 47.9637 63.5737V63.5737Z" fill="transparent" stroke="#A1A1A1" stroke-width="1.75" stroke-linecap="round" stroke-linejoin="round"/>
<path fill-rule="evenodd" clip-rule="evenodd" d="M105.323 63.5737C105.323 72.2141 98.32 79.2171 89.6796 79.2171C81.0392 79.2171 74.0361 72.2141 74.0361 63.5737C74.0361 54.9332 81.0392 47.9302 89.6796 47.9302C98.32 47.9302 105.323 54.9332 105.323 63.5737V63.5737Z" fill="transparent" stroke="#A1A1A1" stroke-width="1.75" stroke-linecap="round" stroke-linejoin="round"/>
<path d="M107.315 63.5739C109.291 63.5739 111.095 62.458 111.977 60.6903L117.056 50.5377C119.626 45.3962 120.967 39.7228 120.967 33.9712C120.967 29.6015 119.027 25.456 115.669 22.6558L93.7782 4.41549C91.1292 2.20976 87.7919 1 84.3452 1H32.3202C27.528 1 23.1427 3.70632 20.9995 7.99785L2.36811 45.2606C1.49208 47.0127 1.0332 48.9525 1.0332 50.9183C1.0332 57.9058 6.70136 63.5739 13.6888 63.5739H16.6767" fill="transparent" stroke="#A1A1A1" stroke-width="1.75" stroke-linecap="round" stroke-linejoin="round"/>
<path d="M47.9636 63.5737H74.0361" fill="transparent" stroke="#A1A1A1" stroke-width="1.75" stroke-linecap="round" stroke-linejoin="round"/>
<path fill-rule="evenodd" clip-rule="evenodd" d="M84.465 11.4292L79.2505 32.2872H110.537L84.465 11.4292Z" fill="transparent" stroke="#A1A1A1" stroke-width="1.75" stroke-linecap="round" stroke-linejoin="round"/>
<path d="M37.5347 11.4292H1.0332" fill="transparent" stroke="#A1A1A1" stroke-width="1.75" stroke-linecap="round" stroke-linejoin="round"/>
<path d="M27.1057 27.0728H1.0332" fill="transparent" stroke="#A1A1A1" stroke-width="1.75" stroke-linecap="round" stroke-linejoin="round"/>
<path d="M16.6767 42.7163H1.0332" fill="transparent" stroke="#A1A1A1" stroke-width="1.75" stroke-linecap="round" stroke-linejoin="round"/>
</svg>
