<svg width="22" height="15" viewBox="0 0 22 15" fill="none" xmlns="http://www.w3.org/2000/svg">
<path fill-rule="evenodd" clip-rule="evenodd" d="M8.82584 11.4339C8.82584 12.8747 7.65803 14.0425 6.21718 14.0425C4.77633 14.0425 3.60852 12.8747 3.60852 11.4339C3.60852 9.99301 4.77633 8.8252 6.21718 8.8252C7.65803 8.8252 8.82584 9.99301 8.82584 11.4339V11.4339Z" stroke="#3E3E3E" stroke-width="1.4" stroke-linecap="round" stroke-linejoin="round"/>
<path fill-rule="evenodd" clip-rule="evenodd" d="M18.3908 11.4339C18.3908 12.8747 17.223 14.0425 15.7821 14.0425C14.3413 14.0425 13.1735 12.8747 13.1735 11.4339C13.1735 9.99301 14.3413 8.8252 15.7821 8.8252C17.223 8.8252 18.3908 9.99301 18.3908 11.4339V11.4339Z" stroke="#3E3E3E" stroke-width="1.4" stroke-linecap="round" stroke-linejoin="round"/>
<path d="M18.7232 11.4346C19.0528 11.4346 19.3537 11.2486 19.5006 10.9538L20.3476 9.26076C20.7763 8.40338 20.9997 7.45731 20.9997 6.49819C20.9997 5.7695 20.6763 5.07821 20.1163 4.61126L16.4659 1.56956C16.0241 1.20174 15.4676 1 14.8929 1H6.21732C5.4182 1 4.68691 1.4513 4.32952 2.16694L1.22261 8.38077C1.07652 8.67294 1 8.99642 1 9.32424C1 10.4894 1.9452 11.4346 3.11041 11.4346H3.60866" stroke="#3E3E3E" stroke-width="1.4" stroke-linecap="round" stroke-linejoin="round"/>
<path d="M8.82568 11.4341H13.1735" stroke="#3E3E3E" stroke-width="1.4" stroke-linecap="round" stroke-linejoin="round"/>
<path d="M20.4996 6.21796H14.0431L14.6672 3.72168L15.2618 1.22217" stroke="#3E3E3E" stroke-width="1.4" stroke-linecap="round" stroke-linejoin="round"/>
</svg>
