<svg width="18" height="18" viewBox="0 0 18 18" fill="none" xmlns="http://www.w3.org/2000/svg">
<path d="M9.04736 17.4736C4.41553 17.4736 0.580566 13.6304 0.580566 9.00684C0.580566 4.375 4.42383 0.540039 9.05566 0.540039C13.6792 0.540039 17.5142 4.375 17.5142 9.00684C17.5142 13.6304 13.6709 17.4736 9.04736 17.4736ZM9.04736 16.0625C12.9653 16.0625 16.0947 12.9248 16.0947 9.00684C16.0947 5.08887 12.9736 1.95117 9.05566 1.95117C5.1377 1.95117 2 5.08887 1.9917 9.00684C1.9834 12.9248 5.12939 16.0625 9.04736 16.0625ZM13.3887 9.90332H9.05566C8.73193 9.90332 8.47461 9.6543 8.47461 9.32227V3.72754C8.47461 3.40381 8.73193 3.15479 9.05566 3.15479C9.37939 3.15479 9.62842 3.40381 9.62842 3.72754V8.74951H13.3887C13.7207 8.74951 13.9697 8.99854 13.9697 9.32227C13.9697 9.6543 13.7207 9.90332 13.3887 9.90332Z" fill="#3E3E3E"/>
</svg>
