<svg width="24" height="23" viewBox="0 0 24 23" fill="none" xmlns="http://www.w3.org/2000/svg">
<path d="M11.1104 18.4566L10.8602 18.4498L10.656 18.5946C9.61757 19.3313 8.38921 20.0491 7.25385 20.5798C6.08333 21.1269 5.12739 21.4193 4.59259 21.4193C4.4249 21.4193 4.32885 21.3841 4.28198 21.3581C4.23787 21.3337 4.22429 21.3111 4.21868 21.2992C4.2107 21.2822 4.17316 21.1661 4.31966 20.9754L4.32121 20.9734C4.80268 20.3421 5.72571 19.0495 6.2339 18.0558L6.58926 17.3608L5.8807 17.0334C2.75816 15.5907 0.75 12.7519 0.75 9.61905C0.75 4.8559 5.58539 0.75 12 0.75C18.4146 0.75 23.25 4.8559 23.25 9.61905C23.25 14.5697 18.2589 18.6515 11.1104 18.4566Z" fill="transparent" stroke="#3E3E3E" stroke-width="1.5"/>
</svg>
