<svg width="19" height="17" viewBox="0 0 19 17" fill="none" xmlns="http://www.w3.org/2000/svg">
<path d="M3.78906 16.6172C4.84375 16.6172 7 15.5547 8.58594 14.4297C14.0312 14.5781 18.1172 11.4453 18.1172 7.35156C18.1172 3.42188 14.1797 0.25 9.25781 0.25C4.33594 0.25 0.398438 3.42188 0.398438 7.35156C0.398438 9.91406 2.03906 12.1875 4.50781 13.3281C4.15625 14.0156 3.5 14.9375 3.14844 15.3984C2.73438 15.9375 2.98438 16.6172 3.78906 16.6172ZM4.60938 15.3203C4.54688 15.3438 4.52344 15.2969 4.5625 15.25C5 14.7109 5.625 13.8984 5.89062 13.3906C6.10938 12.9922 6.05469 12.6328 5.55469 12.3984C3.10156 11.2578 1.69531 9.4375 1.69531 7.35156C1.69531 4.15625 5.04688 1.54688 9.25781 1.54688C13.4766 1.54688 16.8281 4.15625 16.8281 7.35156C16.8281 10.5547 13.4766 13.1641 9.25781 13.1641C9.10156 13.1641 8.85938 13.1562 8.54688 13.1484C8.21875 13.1406 7.96875 13.25 7.67188 13.4844C6.71094 14.1797 5.32031 15.0312 4.60938 15.3203Z" fill="#3E3E3E"/>
</svg>
