<svg width="24" height="17" viewBox="0 0 24 17" fill="none" xmlns="http://www.w3.org/2000/svg">
<path fill-rule="evenodd" clip-rule="evenodd" d="M24 0.75C24 1.16421 23.6642 1.5 23.25 1.5H0.75C0.335786 1.5 0 1.16421 0 0.75C0 0.335786 0.335786 0 0.75 0H23.25C23.6642 0 24 0.335786 24 0.75Z" fill="#A1A1A1"/>
<path fill-rule="evenodd" clip-rule="evenodd" d="M21 8.18994C21 8.60415 20.6642 8.93994 20.25 8.93994H3.75C3.33579 8.93994 3 8.60415 3 8.18994C3 7.77573 3.33579 7.43994 3.75 7.43994H20.25C20.6642 7.43994 21 7.77573 21 8.18994Z" fill="#A1A1A1"/>
<path fill-rule="evenodd" clip-rule="evenodd" d="M18 15.6299C18 16.0441 17.6642 16.3799 17.25 16.3799H6.75C6.33579 16.3799 6 16.0441 6 15.6299C6 15.2157 6.33579 14.8799 6.75 14.8799H17.25C17.6642 14.8799 18 15.2157 18 15.6299Z" fill="#A1A1A1"/>
</svg>
