<svg width="136" height="33" viewBox="0 0 136 33" fill="none" xmlns="http://www.w3.org/2000/svg">
<path fill-rule="evenodd" clip-rule="evenodd" d="M13.1036 20.5858C13.8827 18.9502 14.273 17.1306 14.273 15.1268C14.273 13.317 13.9914 11.8439 13.4287 10.71C12.5389 8.92336 11.0034 8.02979 8.82388 8.02979C6.89056 8.02979 5.48506 8.79033 4.60586 10.3109C3.72768 11.8325 3.28833 13.6666 3.28833 15.8147C3.28833 17.8798 3.72768 19.5989 4.60586 20.9756C5.48506 22.3513 6.87843 23.0391 8.78951 23.0391C10.8861 23.0391 12.3245 22.2213 13.1036 20.5858ZM14.3912 5.82036H17.5905V28.0263C17.5905 29.4401 17.3655 30.4987 16.9151 31.1994C16.1683 32.3838 14.7527 32.9758 12.6672 32.9758C12.513 32.9758 12.3497 32.9701 12.1783 32.9577C12.0064 32.9458 11.737 32.9216 11.3694 32.8855V30.0573C12.8027 30.0088 13.6647 29.8789 13.9559 29.6665C14.2461 29.4551 14.3912 28.7935 14.3912 27.6818V23.8992C13.3113 24.8567 11.5853 25.8488 8.48913 25.8488C5.88845 25.8488 3.82367 24.9464 2.2938 23.1418C0.764431 21.336 0 18.9121 0 15.8694C0 12.6091 0.805888 10.0139 2.41716 8.08138C4.02995 6.14985 6.19432 5.18408 8.9128 5.18408C11.334 5.18408 13.1389 6.05136 14.3912 7.05838V5.82036Z" fill="#404040"/>
<path fill-rule="evenodd" clip-rule="evenodd" d="M107.179 13.7422C107.049 12.3284 106.749 11.1982 106.279 10.3525C105.41 8.78142 103.959 7.99561 101.926 7.99561C100.469 7.99561 99.2473 8.5365 98.2599 9.61828C97.2736 10.7001 96.7503 12.0747 96.6921 13.7422H107.179ZM106.032 6.11974C107.292 6.76633 108.252 7.60319 108.912 8.63032C109.548 9.60897 109.972 10.7511 110.183 12.0561C110.372 12.9507 110.467 14.3764 110.467 16.3343H96.6208C96.6789 18.3107 97.1324 19.8952 97.9787 21.0883C98.8251 22.2825 100.136 22.8791 101.912 22.8791C103.568 22.8791 104.892 22.315 105.879 21.1863C106.432 20.5304 106.823 19.7709 107.054 18.9093H110.201C110.117 19.6219 109.842 20.4165 109.374 21.293C108.906 22.1691 108.384 22.8848 107.808 23.4411C106.843 24.4079 105.649 25.0602 104.226 25.3984C103.462 25.5918 102.598 25.6887 101.633 25.6887C99.2781 25.6887 97.2826 24.8096 95.6455 23.0513C94.0079 21.293 93.1904 18.8304 93.1904 15.664C93.1904 12.546 94.015 10.0143 95.6632 8.06829C97.3119 6.12283 99.4667 5.15088 102.129 5.15088C103.471 5.15088 104.772 5.47418 106.032 6.11974Z" fill="#404040"/>
<path fill-rule="evenodd" clip-rule="evenodd" d="M40.4873 13.7432C40.3578 12.3293 40.0575 11.1991 39.5879 10.3535C38.7188 8.78236 37.2673 7.99655 35.2348 7.99655C33.7778 7.99655 32.5558 8.53744 31.5684 9.61922C30.582 10.701 30.0588 12.0757 30.0006 13.7432H40.4873ZM39.3407 6.12077C40.6011 6.76736 41.5606 7.60422 42.2204 8.63135C42.8564 9.61 43.2806 10.7521 43.4919 12.0572C43.6805 12.9518 43.7756 14.3775 43.7756 16.3353H29.9294C29.9875 18.3096 30.441 19.8952 31.2873 21.0883C32.1337 22.282 33.4446 22.8791 35.2202 22.8791C36.877 22.8791 38.2006 22.314 39.188 21.1853C39.7406 20.5294 40.1319 19.7709 40.3629 18.9093H43.5091C43.4257 19.6219 43.1507 20.4165 42.6825 21.293C42.2144 22.1691 41.6921 22.8848 41.1162 23.4411C40.1516 24.4079 38.9579 25.0602 37.5347 25.3984C36.7703 25.5918 35.9063 25.6887 34.9416 25.6887C32.5867 25.6887 30.5912 24.8096 28.9541 23.0513C27.3165 21.293 26.499 18.8304 26.499 15.665C26.499 12.547 27.3236 10.0153 28.9718 8.06932C30.6205 6.12386 32.7752 5.15088 35.4376 5.15088C36.7794 5.15088 38.0808 5.47418 39.3407 6.12077Z" fill="#404040"/>
<path fill-rule="evenodd" clip-rule="evenodd" d="M58.9047 8.28074C57.4714 8.32921 56.6094 8.45915 56.3187 8.67055C56.0285 8.88196 55.8829 9.54351 55.8829 10.6552V25.2113H52.6836V10.3113C52.6836 8.89691 52.9091 7.83988 53.359 7.13863C54.1058 5.95424 55.5219 5.3623 57.6074 5.3623C57.7611 5.3623 57.9249 5.36849 58.0958 5.38035C58.2677 5.39221 58.5372 5.41645 58.9047 5.45305V8.28074Z" fill="#404040"/>
<path fill-rule="evenodd" clip-rule="evenodd" d="M85.1502 25.2253L81.4888 9.92621L77.7739 25.2253H74.1838L70.4516 10.017L66.5587 25.2253H63.3589L68.8874 5.81152H72.2105L76.0853 20.8384L79.8356 5.81152H83.1593L88.6519 25.2253H85.1502Z" fill="#404040"/>
<path fill-rule="evenodd" clip-rule="evenodd" d="M135.817 25.2253H132.066L122.735 10.3434L122.664 10.2402V25.2253H119.375V5.81152H123.126L132.475 20.6935L132.546 20.8023V5.81152H135.817V25.2253Z" fill="#404040"/>
<path fill-rule="evenodd" clip-rule="evenodd" d="M29.4492 2.58844H40.8247V0H29.4492V2.58844Z" fill="#404040"/>
</svg>
