<svg width="18" height="18" viewBox="0 0 18 18" fill="none" xmlns="http://www.w3.org/2000/svg">
<path fill-rule="evenodd" clip-rule="evenodd" d="M14.0409 7.77044C14.0409 11.2335 11.2335 14.0409 7.77044 14.0409C4.30737 14.0409 1.5 11.2335 1.5 7.77044C1.5 4.30737 4.30737 1.5 7.77044 1.5C11.2335 1.5 14.0409 4.30737 14.0409 7.77044ZM12.6312 13.8331C11.3003 14.9016 9.61002 15.5409 7.77044 15.5409C3.47894 15.5409 0 12.0619 0 7.77044C0 3.47894 3.47894 0 7.77044 0C12.0619 0 15.5409 3.47894 15.5409 7.77044C15.5409 9.61 14.9016 11.3003 13.8332 12.6312L17.7515 16.5495C18.0834 16.8815 18.0834 17.4196 17.7515 17.7515C17.4196 18.0834 16.8815 18.0834 16.5496 17.7515L12.6312 13.8331Z" fill="#A1A1A1"/>
</svg>
