<svg xmlns="http://www.w3.org/2000/svg" xmlns:xlink="http://www.w3.org/1999/xlink"><symbol id="arrow-down" viewBox="0 0 12 7"><path d="M1 1l5 5 5-5" stroke="#8A8A8E" stroke-width="2" stroke-linecap="round" stroke-linejoin="round" fill="transparent"/></symbol><symbol id="bouquet" viewBox="0 0 101 100"><path d="M73.937 21.875A14.063 14.063 0 0188 7.812v12.5a14.042 14.042 0 01-22.522 11.213m24.63 11.444a8.003 8.003 0 00-11.317 0 8.002 8.002 0 01-11.316 0 8.003 8.003 0 00-11.317 0 8.001 8.001 0 01-11.316 0 8.003 8.003 0 00-11.317 0 8.001 8.001 0 01-11.316 0 8.003 8.003 0 00-11.317 0l31.795 35.156h15.626l31.795-35.156zm-47.42 35.156l-6.25 18.75h28.124l-6.25-18.75m-7.812 0V68.75M27.063 21.875A14.063 14.063 0 0013 7.812v12.5a14.041 14.041 0 0022.522 11.213M50.5 29.688v6.25M36.437 8.492a28.093 28.093 0 00-11.064 6.697m23.437-4.687c4.162-3.885 9.676-7.377 15.752-7.377v12.5a14.063 14.063 0 01-28.124 0v-12.5A14.062 14.062 0 0150.5 17.188m14.063-8.696a28.109 28.109 0 0111.065 6.697" stroke="#A1A1A1" stroke-width="1.75" fill="transparent" stroke-miterlimit="10" stroke-linecap="round" stroke-linejoin="round"/></symbol><symbol id="car-big" viewBox="0 0 122 81"><path fill-rule="evenodd" clip-rule="evenodd" d="M47.964 63.574c0 8.64-7.003 15.643-15.644 15.643-8.64 0-15.643-7.003-15.643-15.643S23.68 47.93 32.32 47.93s15.644 7.003 15.644 15.644v0zm57.359 0c0 8.64-7.003 15.643-15.643 15.643s-15.644-7.003-15.644-15.643S81.04 47.93 89.68 47.93s15.643 7.003 15.643 15.644v0z" fill="transparent" stroke="#A1A1A1" stroke-width="1.75" stroke-linecap="round" stroke-linejoin="round"/><path d="M107.315 63.574a5.208 5.208 0 004.662-2.884l5.079-10.152a37.06 37.06 0 003.911-16.567c0-4.37-1.94-8.515-5.298-11.315l-21.89-18.24A14.743 14.743 0 0084.344 1H32.32A12.653 12.653 0 0021 7.998L2.367 45.26a12.661 12.661 0 00-1.335 5.657c0 6.988 5.668 12.656 12.656 12.656h2.988m31.288.001h26.072" fill="transparent" stroke="#A1A1A1" stroke-width="1.75" stroke-linecap="round" stroke-linejoin="round"/><path fill-rule="evenodd" clip-rule="evenodd" d="M84.465 11.43L79.25 32.286h31.287L84.465 11.43z" fill="transparent" stroke="#A1A1A1" stroke-width="1.75" stroke-linecap="round" stroke-linejoin="round"/><path d="M37.535 11.43H1.033m26.073 15.643H1.033m15.644 15.643H1.033" fill="transparent" stroke="#A1A1A1" stroke-width="1.75" stroke-linecap="round" stroke-linejoin="round"/></symbol><symbol id="car-small" viewBox="0 0 22 15"><path clip-rule="evenodd" d="M8.826 11.434a2.608 2.608 0 11-5.217 0 2.608 2.608 0 015.217 0v0zm9.564 0a2.608 2.608 0 11-5.216 0 2.608 2.608 0 015.217 0v0z" stroke="#3E3E3E" stroke-width="1.4" stroke-linecap="round" stroke-linejoin="round"/><path d="M18.723 11.435a.87.87 0 00.778-.481l.847-1.693A6.178 6.178 0 0021 6.498c0-.729-.324-1.42-.884-1.887l-3.65-3.041A2.459 2.459 0 0014.893 1H6.217c-.799 0-1.53.451-1.887 1.167L1.223 8.38a2.111 2.111 0 001.887 3.054h.499m5.217 0h4.348" stroke="#3E3E3E" stroke-width="1.4" stroke-linecap="round" stroke-linejoin="round"/><path d="M20.5 6.218h-6.457l.624-2.496.595-2.5" stroke="#3E3E3E" stroke-width="1.4" stroke-linecap="round" stroke-linejoin="round"/></symbol><symbol id="clock" viewBox="0 0 18 18"><path d="M9.047 17.474c-4.631 0-8.466-3.844-8.466-8.467C.58 4.375 4.424.54 9.056.54c4.623 0 8.458 3.835 8.458 8.467 0 4.623-3.843 8.467-8.467 8.467zm0-1.412a7.022 7.022 0 007.048-7.055 7.015 7.015 0 00-7.04-7.056 7.041 7.041 0 00-7.063 7.056 7.023 7.023 0 007.055 7.056zm4.342-6.159H9.056a.572.572 0 01-.581-.58V3.727a.57.57 0 01.58-.573c.324 0 .573.249.573.573V8.75h3.76c.333 0 .582.249.582.572a.567.567 0 01-.581.581z" fill="#3E3E3E"/></symbol><symbol id="logo" viewBox="0 0 136 33"><path fill-rule="evenodd" clip-rule="evenodd" d="M13.104 20.586c.779-1.636 1.169-3.455 1.169-5.46 0-1.809-.282-3.282-.844-4.416-.89-1.787-2.426-2.68-4.605-2.68-1.933 0-3.339.76-4.218 2.28-.878 1.522-1.318 3.357-1.318 5.505 0 2.065.44 3.784 1.318 5.16.88 1.376 2.272 2.064 4.184 2.064 2.096 0 3.535-.818 4.314-2.453zM14.39 5.82h3.2v22.206c0 1.414-.226 2.473-.676 3.173-.747 1.185-2.162 1.777-4.248 1.777-.154 0-.317-.006-.489-.018a31.7 31.7 0 01-.809-.072v-2.829c1.434-.048 2.296-.178 2.587-.39.29-.212.435-.873.435-1.985v-3.783c-1.08.958-2.806 1.95-5.902 1.95-2.6 0-4.665-.903-6.195-2.707C.764 21.336 0 18.912 0 15.869c0-3.26.806-5.855 2.417-7.788C4.03 6.15 6.194 5.184 8.913 5.184c2.421 0 4.226.867 5.478 1.874V5.82zm92.789 7.922c-.13-1.414-.43-2.544-.9-3.39-.869-1.57-2.32-2.356-4.353-2.356-1.457 0-2.679.54-3.666 1.622-.986 1.082-1.51 2.457-1.568 4.124h10.487zm-1.147-7.622c1.26.646 2.22 1.483 2.88 2.51.636.979 1.06 2.121 1.271 3.426.189.895.284 2.32.284 4.278H96.621c.058 1.977.511 3.561 1.358 4.754.846 1.194 2.157 1.791 3.933 1.791 1.656 0 2.98-.564 3.967-1.693a5.823 5.823 0 001.175-2.277h3.147c-.084.713-.359 1.508-.827 2.384-.468.876-.99 1.592-1.566 2.148-.965.967-2.159 1.62-3.582 1.957-.764.194-1.628.29-2.593.29-2.355 0-4.35-.878-5.987-2.637-1.638-1.758-2.456-4.22-2.456-7.387 0-3.118.825-5.65 2.473-7.596 1.649-1.945 3.804-2.917 6.466-2.917 1.342 0 2.643.323 3.903.969zm-65.545 7.623c-.13-1.414-.43-2.544-.9-3.39-.868-1.57-2.32-2.356-4.352-2.356-1.457 0-2.68.54-3.667 1.622-.986 1.082-1.51 2.457-1.567 4.124h10.486zm-1.146-7.622c1.26.646 2.22 1.483 2.88 2.51.635.979 1.06 2.121 1.27 3.426.19.895.285 2.32.285 4.278H29.929c.059 1.975.512 3.56 1.358 4.753.847 1.194 2.158 1.791 3.933 1.791 1.657 0 2.98-.565 3.968-1.694a5.824 5.824 0 001.175-2.276h3.146c-.083.713-.358 1.508-.827 2.384-.468.876-.99 1.592-1.566 2.148-.964.967-2.158 1.62-3.581 1.957-.765.194-1.629.29-2.593.29-2.355 0-4.35-.878-5.988-2.637-1.637-1.758-2.455-4.22-2.455-7.386 0-3.118.825-5.65 2.473-7.596 1.648-1.945 3.803-2.918 6.466-2.918 1.341 0 2.643.323 3.903.97zM58.905 8.28c-1.434.05-2.296.18-2.586.39-.29.212-.436.874-.436 1.985v14.556h-3.2v-14.9c0-1.414.226-2.471.676-3.172.747-1.185 2.163-1.777 4.248-1.777.154 0 .318.006.489.018.172.012.441.036.809.073v2.828zM85.15 25.225L81.49 9.926l-3.715 15.3h-3.59l-3.732-15.209-3.893 15.208h-3.2l5.528-19.413h3.323l3.875 15.026 3.75-15.026h3.324l5.493 19.413H85.15zm50.667 0h-3.751l-9.331-14.882-.071-.103v14.985h-3.289V5.812h3.751l9.349 14.881.071.11V5.811h3.271v19.413zM29.45 2.588h11.375V0H29.449v2.588z" fill="#404040"/></symbol><symbol id="tick" viewBox="0 0 24 22"><path d="M8.912 16.906l-5.547-6.164a1.5 1.5 0 00-2.23 2.007l6.75 7.5a1.5 1.5 0 002.302-.086l12.75-16.5a1.5 1.5 0 10-2.374-1.834L8.913 16.906z" fill="#fff" stroke="#fff"/></symbol></svg>